# xmcd
#
# Track frame offsets: 
#        150
#        13037
#        27095
#        38635
#        50320
#        61410
#        72852
#        86285
#        101400
#        111305
#        124190
#        137202
#
# Disc length: 2022 seconds
#
# Revision: 0
# Processed by: cddbd v1.5.2PL0 Copyright (c) Steve Scherf et al.
# Submitted via: ExactAudioCopy v0.99pb4
#
DISCID=9907e40c
DTITLE=Bo Diddley - The Best of Bo Diddley - The Millennium Collection
DTITLE=(20th Century Masters)
DYEAR=2000
DGENRE=R n B
TTITLE0=Bo Diddley
TTITLE1=I'm a Man
TTITLE2=Diddley Daddy
TTITLE3=Who Do You Love?
TTITLE4=Mona
TTITLE5=I'm Sorry
TTITLE6=Dearest Darling
TTITLE7=Say Man
TTITLE8=Crackin' Up
TTITLE9=Don't Let It Go (Hold On To What You Got)
TTITLE10=Road Runner
TTITLE11=You Can't Judge a Book By Its Cover
EXTD=
EXTT0=
EXTT1=
EXTT2=
EXTT3=
EXTT4=
EXTT5=
EXTT6=
EXTT7=
EXTT8=
EXTT9=
EXTT10=
EXTT11=
PLAYORDER=
